<mxfile host="65bd71144e">
    <diagram name="Page-1" id="6cbxxOWIp2JRzMngWWry">
        <mxGraphModel dx="1155" dy="649" grid="1" gridSize="10" guides="1" tooltips="1" connect="1" arrows="1" fold="1" page="1" pageScale="1" pageWidth="850" pageHeight="1100" math="0" shadow="0">
            <root>
                <mxCell id="0"/>
                <mxCell id="1" parent="0"/>
                <mxCell id="jkPkZkn7jcSXZyNkAgHr-29" style="edgeStyle=orthogonalEdgeStyle;rounded=0;orthogonalLoop=1;jettySize=auto;html=1;entryX=0;entryY=0.5;entryDx=0;entryDy=0;" parent="1" source="jkPkZkn7jcSXZyNkAgHr-1" target="jkPkZkn7jcSXZyNkAgHr-26" edge="1">
                    <mxGeometry relative="1" as="geometry"/>
                </mxCell>
                <mxCell id="jkPkZkn7jcSXZyNkAgHr-1" value="LM61" style="whiteSpace=wrap;html=1;aspect=fixed;" parent="1" vertex="1">
                    <mxGeometry x="40" y="40" width="40" height="40" as="geometry"/>
                </mxCell>
                <mxCell id="jkPkZkn7jcSXZyNkAgHr-7" value="" style="edgeStyle=orthogonalEdgeStyle;rounded=0;orthogonalLoop=1;jettySize=auto;html=1;" parent="1" source="jkPkZkn7jcSXZyNkAgHr-4" target="jkPkZkn7jcSXZyNkAgHr-5" edge="1">
                    <mxGeometry relative="1" as="geometry"/>
                </mxCell>
                <mxCell id="jkPkZkn7jcSXZyNkAgHr-4" value="Equalizer" style="html=1;whiteSpace=wrap;" parent="1" vertex="1">
                    <mxGeometry x="200" y="40" width="60" height="40" as="geometry"/>
                </mxCell>
                <mxCell id="jkPkZkn7jcSXZyNkAgHr-10" value="" style="edgeStyle=orthogonalEdgeStyle;rounded=0;orthogonalLoop=1;jettySize=auto;html=1;" parent="1" source="jkPkZkn7jcSXZyNkAgHr-5" target="jkPkZkn7jcSXZyNkAgHr-9" edge="1">
                    <mxGeometry relative="1" as="geometry"/>
                </mxCell>
                <mxCell id="jkPkZkn7jcSXZyNkAgHr-5" value="MAV" style="html=1;whiteSpace=wrap;" parent="1" vertex="1">
                    <mxGeometry x="280" y="40" width="40" height="40" as="geometry"/>
                </mxCell>
                <mxCell id="jkPkZkn7jcSXZyNkAgHr-41" style="edgeStyle=orthogonalEdgeStyle;rounded=0;orthogonalLoop=1;jettySize=auto;html=1;entryX=0;entryY=0.5;entryDx=0;entryDy=0;" parent="1" source="jkPkZkn7jcSXZyNkAgHr-9" target="jkPkZkn7jcSXZyNkAgHr-39" edge="1">
                    <mxGeometry relative="1" as="geometry"/>
                </mxCell>
                <mxCell id="jkPkZkn7jcSXZyNkAgHr-42" style="edgeStyle=orthogonalEdgeStyle;rounded=0;orthogonalLoop=1;jettySize=auto;html=1;entryX=0;entryY=0.5;entryDx=0;entryDy=0;" parent="1" source="jkPkZkn7jcSXZyNkAgHr-9" target="jkPkZkn7jcSXZyNkAgHr-37" edge="1">
                    <mxGeometry relative="1" as="geometry"/>
                </mxCell>
                <mxCell id="6" style="html=1;entryX=0;entryY=0.5;entryDx=0;entryDy=0;edgeStyle=orthogonalEdgeStyle;elbow=vertical;rounded=0;curved=0;" parent="1" source="jkPkZkn7jcSXZyNkAgHr-9" target="2" edge="1">
                    <mxGeometry relative="1" as="geometry"/>
                </mxCell>
                <mxCell id="jkPkZkn7jcSXZyNkAgHr-9" value="Filter Banks" style="html=1;whiteSpace=wrap;" parent="1" vertex="1">
                    <mxGeometry x="360" y="40" width="40" height="40" as="geometry"/>
                </mxCell>
                <mxCell id="jkPkZkn7jcSXZyNkAgHr-30" style="edgeStyle=orthogonalEdgeStyle;rounded=0;orthogonalLoop=1;jettySize=auto;html=1;entryX=0;entryY=0.5;entryDx=0;entryDy=0;" parent="1" source="jkPkZkn7jcSXZyNkAgHr-26" target="jkPkZkn7jcSXZyNkAgHr-4" edge="1">
                    <mxGeometry relative="1" as="geometry"/>
                </mxCell>
                <mxCell id="jkPkZkn7jcSXZyNkAgHr-26" value="&lt;b&gt;ADC&lt;/b&gt;" style="html=1;dropTarget=0;whiteSpace=wrap;align=left;" parent="1" vertex="1">
                    <mxGeometry x="120" y="40" width="60" height="40" as="geometry"/>
                </mxCell>
                <mxCell id="jkPkZkn7jcSXZyNkAgHr-27" value="" style="shape=module;jettyWidth=8;jettyHeight=4;" parent="jkPkZkn7jcSXZyNkAgHr-26" vertex="1">
                    <mxGeometry x="1" width="20" height="20" relative="1" as="geometry">
                        <mxPoint x="-27" y="7" as="offset"/>
                    </mxGeometry>
                </mxCell>
                <mxCell id="jkPkZkn7jcSXZyNkAgHr-31" value="&lt;p style=&quot;margin: 6px 0px 0px;&quot;&gt;&lt;b&gt;&lt;font style=&quot;color: light-dark(rgb(0, 0, 0), rgb(255, 255, 255));&quot;&gt;&amp;nbsp;ADC&lt;/font&gt;&lt;/b&gt;&lt;/p&gt;&lt;hr size=&quot;1&quot; style=&quot;border-style:solid;&quot;&gt;&lt;p style=&quot;margin:0px;margin-left:8px;&quot;&gt;&lt;font style=&quot;color: light-dark(rgb(0, 0, 0), rgb(255, 255, 255));&quot;&gt;- Oversampling &amp;amp; Averaging&lt;/font&gt;&lt;/p&gt;&lt;p style=&quot;margin:0px;margin-left:8px;&quot;&gt;&lt;font style=&quot;color: light-dark(rgb(0, 0, 0), rgb(255, 255, 255));&quot;&gt;- Dithering&lt;/font&gt;&lt;/p&gt;" style="align=left;overflow=fill;html=1;dropTarget=0;whiteSpace=wrap;" parent="1" vertex="1">
                    <mxGeometry x="40" y="440" width="170" height="80" as="geometry"/>
                </mxCell>
                <mxCell id="jkPkZkn7jcSXZyNkAgHr-32" value="" style="shape=component;jettyWidth=8;jettyHeight=4;" parent="jkPkZkn7jcSXZyNkAgHr-31" vertex="1">
                    <mxGeometry x="1" width="20" height="20" relative="1" as="geometry">
                        <mxPoint x="-24" y="4" as="offset"/>
                    </mxGeometry>
                </mxCell>
                <mxCell id="jkPkZkn7jcSXZyNkAgHr-35" value="&lt;p style=&quot;margin: 6px 0px 0px;&quot;&gt;&lt;b&gt;&lt;font style=&quot;color: light-dark(rgb(0, 0, 0), rgb(255, 255, 255));&quot;&gt;&amp;nbsp;Band pass filter&lt;/font&gt;&lt;/b&gt;&lt;/p&gt;&lt;hr size=&quot;1&quot; style=&quot;border-style:solid;&quot;&gt;&lt;p style=&quot;margin:0px;margin-left:8px;&quot;&gt;&lt;font style=&quot;color: light-dark(rgb(0, 0, 0), rgb(255, 255, 255));&quot;&gt;- Checks BPM above 40 and below 12.&lt;/font&gt;&lt;/p&gt;" style="align=left;overflow=fill;html=1;dropTarget=0;whiteSpace=wrap;" parent="1" vertex="1">
                    <mxGeometry x="40" y="530" width="170" height="80" as="geometry"/>
                </mxCell>
                <mxCell id="jkPkZkn7jcSXZyNkAgHr-36" value="" style="shape=component;jettyWidth=8;jettyHeight=4;" parent="jkPkZkn7jcSXZyNkAgHr-35" vertex="1">
                    <mxGeometry x="1" width="20" height="20" relative="1" as="geometry">
                        <mxPoint x="-24" y="4" as="offset"/>
                    </mxGeometry>
                </mxCell>
                <mxCell id="XSQme3nOFOdDjyaG3ttb-12" style="edgeStyle=orthogonalEdgeStyle;rounded=0;orthogonalLoop=1;jettySize=auto;html=1;entryX=0;entryY=0.5;entryDx=0;entryDy=0;" parent="1" source="jkPkZkn7jcSXZyNkAgHr-37" target="jkPkZkn7jcSXZyNkAgHr-47" edge="1">
                    <mxGeometry relative="1" as="geometry"/>
                </mxCell>
                <mxCell id="jkPkZkn7jcSXZyNkAgHr-37" value="&lt;font&gt;&lt;b&gt;High&amp;nbsp;&lt;/b&gt;&lt;/font&gt;&lt;b style=&quot;background-color: transparent;&quot;&gt;pass&amp;nbsp;&lt;/b&gt;&lt;div&gt;&lt;b style=&quot;background-color: transparent;&quot;&gt;filter&lt;/b&gt;&lt;/div&gt;" style="html=1;dropTarget=0;whiteSpace=wrap;align=left;" parent="1" vertex="1">
                    <mxGeometry x="440" y="70" width="110" height="40" as="geometry"/>
                </mxCell>
                <mxCell id="jkPkZkn7jcSXZyNkAgHr-38" value="" style="shape=module;jettyWidth=8;jettyHeight=4;" parent="jkPkZkn7jcSXZyNkAgHr-37" vertex="1">
                    <mxGeometry x="1" width="20" height="20" relative="1" as="geometry">
                        <mxPoint x="-27" y="7" as="offset"/>
                    </mxGeometry>
                </mxCell>
                <mxCell id="XSQme3nOFOdDjyaG3ttb-11" style="edgeStyle=orthogonalEdgeStyle;rounded=0;orthogonalLoop=1;jettySize=auto;html=1;entryX=0;entryY=0.5;entryDx=0;entryDy=0;" parent="1" source="jkPkZkn7jcSXZyNkAgHr-39" target="jkPkZkn7jcSXZyNkAgHr-47" edge="1">
                    <mxGeometry relative="1" as="geometry"/>
                </mxCell>
                <mxCell id="jkPkZkn7jcSXZyNkAgHr-39" value="&lt;b&gt;Band pass&lt;/b&gt;&lt;div&gt;&lt;b&gt;filter&lt;/b&gt;&lt;/div&gt;" style="html=1;dropTarget=0;whiteSpace=wrap;align=left;" parent="1" vertex="1">
                    <mxGeometry x="440" y="10" width="110" height="40" as="geometry"/>
                </mxCell>
                <mxCell id="jkPkZkn7jcSXZyNkAgHr-40" value="" style="shape=module;jettyWidth=8;jettyHeight=4;" parent="jkPkZkn7jcSXZyNkAgHr-39" vertex="1">
                    <mxGeometry x="1" width="20" height="20" relative="1" as="geometry">
                        <mxPoint x="-27" y="7" as="offset"/>
                    </mxGeometry>
                </mxCell>
                <mxCell id="jkPkZkn7jcSXZyNkAgHr-45" value="&lt;p style=&quot;margin: 6px 0px 0px;&quot;&gt;&lt;b&gt;&lt;font style=&quot;color: light-dark(rgb(0, 0, 0), rgb(255, 255, 255));&quot;&gt;&amp;nbsp;High pass filter&lt;/font&gt;&lt;/b&gt;&lt;/p&gt;&lt;hr size=&quot;1&quot; style=&quot;border-style:solid;&quot;&gt;&lt;p style=&quot;margin:0px;margin-left:8px;&quot;&gt;&lt;font style=&quot;color: light-dark(rgb(0, 0, 0), rgb(255, 255, 255));&quot;&gt;- Checks above 40 BPM.&lt;/font&gt;&lt;/p&gt;" style="align=left;overflow=fill;html=1;dropTarget=0;whiteSpace=wrap;" parent="1" vertex="1">
                    <mxGeometry x="40" y="620" width="170" height="70" as="geometry"/>
                </mxCell>
                <mxCell id="jkPkZkn7jcSXZyNkAgHr-46" value="" style="shape=component;jettyWidth=8;jettyHeight=4;" parent="jkPkZkn7jcSXZyNkAgHr-45" vertex="1">
                    <mxGeometry x="1" width="20" height="20" relative="1" as="geometry">
                        <mxPoint x="-24" y="4" as="offset"/>
                    </mxGeometry>
                </mxCell>
                <mxCell id="XSQme3nOFOdDjyaG3ttb-15" style="edgeStyle=orthogonalEdgeStyle;rounded=0;orthogonalLoop=1;jettySize=auto;html=1;entryX=0.5;entryY=0;entryDx=0;entryDy=0;" parent="1" source="jkPkZkn7jcSXZyNkAgHr-47" target="XSQme3nOFOdDjyaG3ttb-3" edge="1">
                    <mxGeometry relative="1" as="geometry">
                        <Array as="points">
                            <mxPoint x="745" y="90"/>
                        </Array>
                    </mxGeometry>
                </mxCell>
                <mxCell id="jkPkZkn7jcSXZyNkAgHr-47" value="Store Samples" style="html=1;whiteSpace=wrap;" parent="1" vertex="1">
                    <mxGeometry x="610" y="70" width="80" height="40" as="geometry"/>
                </mxCell>
                <mxCell id="jkPkZkn7jcSXZyNkAgHr-49" value="FFT" style="html=1;whiteSpace=wrap;" parent="1" vertex="1">
                    <mxGeometry x="590" y="160" width="40" height="40" as="geometry"/>
                </mxCell>
                <mxCell id="XSQme3nOFOdDjyaG3ttb-1" value="&lt;p style=&quot;margin:0px;margin-top:6px;text-align:center;&quot;&gt;&lt;b&gt;&lt;font style=&quot;color: light-dark(rgb(0, 0, 0), rgb(255, 255, 255));&quot;&gt;Comparator&lt;/font&gt;&lt;/b&gt;&lt;/p&gt;&lt;hr size=&quot;1&quot; style=&quot;border-style:solid;&quot;&gt;&lt;p style=&quot;margin:0px;margin-left:8px;&quot;&gt;&lt;font style=&quot;color: light-dark(rgb(0, 0, 0), rgb(255, 255, 255));&quot;&gt;- Defaults to normal breathing rate.&lt;/font&gt;&lt;/p&gt;&lt;p style=&quot;margin:0px;margin-left:8px;&quot;&gt;&lt;font style=&quot;color: light-dark(rgb(0, 0, 0), rgb(255, 255, 255));&quot;&gt;- If system is operational check banks else return system error.&lt;/font&gt;&lt;/p&gt;&lt;p style=&quot;margin:0px;margin-left:8px;&quot;&gt;&lt;font style=&quot;color: light-dark(rgb(0, 0, 0), rgb(255, 255, 255));&quot;&gt;- If Bank1&amp;nbsp;is largest return low breathing rate warning.&lt;/font&gt;&lt;/p&gt;&lt;p style=&quot;margin:0px;margin-left:8px;&quot;&gt;&lt;font style=&quot;color: light-dark(rgb(0, 0, 0), rgb(255, 255, 255));&quot;&gt;- If Bank2 is largest return normal breathing rate.&lt;/font&gt;&lt;/p&gt;&lt;p style=&quot;margin:0px;margin-left:8px;&quot;&gt;&lt;font style=&quot;&quot;&gt;&lt;font style=&quot;color: light-dark(rgb(0, 0, 0), rgb(255, 255, 255));&quot;&gt;- If&amp;nbsp;&lt;/font&gt;&lt;span style=&quot;background-color: transparent;&quot;&gt;&lt;font style=&quot;color: light-dark(rgb(0, 0, 0), rgb(255, 255, 255));&quot;&gt;Bank3 is largest return high breathing rate warning.&lt;/font&gt;&lt;/span&gt;&lt;/font&gt;&lt;/p&gt;" style="align=left;overflow=fill;html=1;dropTarget=0;whiteSpace=wrap;" parent="1" vertex="1">
                    <mxGeometry x="250" y="620" width="170" height="200" as="geometry"/>
                </mxCell>
                <mxCell id="XSQme3nOFOdDjyaG3ttb-2" value="" style="shape=component;jettyWidth=8;jettyHeight=4;" parent="XSQme3nOFOdDjyaG3ttb-1" vertex="1">
                    <mxGeometry x="1" width="20" height="20" relative="1" as="geometry">
                        <mxPoint x="-24" y="4" as="offset"/>
                    </mxGeometry>
                </mxCell>
                <mxCell id="XSQme3nOFOdDjyaG3ttb-16" style="edgeStyle=orthogonalEdgeStyle;rounded=0;orthogonalLoop=1;jettySize=auto;html=1;entryX=1;entryY=0.5;entryDx=0;entryDy=0;" parent="1" source="XSQme3nOFOdDjyaG3ttb-3" target="jkPkZkn7jcSXZyNkAgHr-49" edge="1">
                    <mxGeometry relative="1" as="geometry"/>
                </mxCell>
                <mxCell id="XSQme3nOFOdDjyaG3ttb-19" style="edgeStyle=orthogonalEdgeStyle;rounded=0;orthogonalLoop=1;jettySize=auto;html=1;" parent="1" source="XSQme3nOFOdDjyaG3ttb-3" target="XSQme3nOFOdDjyaG3ttb-17" edge="1">
                    <mxGeometry relative="1" as="geometry"/>
                </mxCell>
                <mxCell id="XSQme3nOFOdDjyaG3ttb-3" value="&lt;b&gt;Comparator&lt;/b&gt;" style="html=1;dropTarget=0;whiteSpace=wrap;align=left;" parent="1" vertex="1">
                    <mxGeometry x="690" y="160" width="110" height="40" as="geometry"/>
                </mxCell>
                <mxCell id="XSQme3nOFOdDjyaG3ttb-4" value="" style="shape=module;jettyWidth=8;jettyHeight=4;" parent="XSQme3nOFOdDjyaG3ttb-3" vertex="1">
                    <mxGeometry x="1" width="20" height="20" relative="1" as="geometry">
                        <mxPoint x="-27" y="7" as="offset"/>
                    </mxGeometry>
                </mxCell>
                <mxCell id="XSQme3nOFOdDjyaG3ttb-8" value="&lt;p style=&quot;margin:0px;margin-top:6px;text-align:center;&quot;&gt;&lt;b&gt;&lt;font style=&quot;color: light-dark(rgb(0, 0, 0), rgb(255, 255, 255));&quot;&gt;Speaker&lt;/font&gt;&lt;/b&gt;&lt;/p&gt;&lt;hr size=&quot;1&quot; style=&quot;border-style:solid;&quot;&gt;&lt;p style=&quot;margin:0px;margin-left:8px;&quot;&gt;&lt;font style=&quot;color: light-dark(rgb(0, 0, 0), rgb(255, 255, 255));&quot;&gt;- Outputs alarm based on which warning is returned from the comparator&lt;/font&gt;&lt;/p&gt;&lt;p style=&quot;margin:0px;margin-left:8px;&quot;&gt;&lt;font style=&quot;color: light-dark(rgb(0, 0, 0), rgb(255, 255, 255));&quot;&gt;- If stdHP &amp;gt; 40 bpm sound alarm.&lt;/font&gt;&lt;/p&gt;&lt;p style=&quot;margin:0px;margin-left:8px;&quot;&gt;&lt;font style=&quot;color: light-dark(rgb(0, 0, 0), rgb(255, 255, 255));&quot;&gt;- if stdLP &amp;lt; 12 bpm sound alarm.&lt;/font&gt;&lt;/p&gt;" style="align=left;overflow=fill;html=1;dropTarget=0;whiteSpace=wrap;" parent="1" vertex="1">
                    <mxGeometry x="250" y="440" width="170" height="160" as="geometry"/>
                </mxCell>
                <mxCell id="XSQme3nOFOdDjyaG3ttb-9" value="" style="shape=component;jettyWidth=8;jettyHeight=4;" parent="XSQme3nOFOdDjyaG3ttb-8" vertex="1">
                    <mxGeometry x="1" width="20" height="20" relative="1" as="geometry">
                        <mxPoint x="-24" y="4" as="offset"/>
                    </mxGeometry>
                </mxCell>
                <mxCell id="XSQme3nOFOdDjyaG3ttb-17" value="&lt;b&gt;Speaker&lt;/b&gt;" style="html=1;dropTarget=0;whiteSpace=wrap;align=left;" parent="1" vertex="1">
                    <mxGeometry x="705" y="240" width="80" height="40" as="geometry"/>
                </mxCell>
                <mxCell id="XSQme3nOFOdDjyaG3ttb-18" value="" style="shape=module;jettyWidth=8;jettyHeight=4;" parent="XSQme3nOFOdDjyaG3ttb-17" vertex="1">
                    <mxGeometry x="1" width="20" height="20" relative="1" as="geometry">
                        <mxPoint x="-27" y="7" as="offset"/>
                    </mxGeometry>
                </mxCell>
                <mxCell id="9" style="edgeStyle=orthogonalEdgeStyle;html=1;entryX=0;entryY=0.5;entryDx=0;entryDy=0;rounded=0;curved=0;" parent="1" source="2" target="jkPkZkn7jcSXZyNkAgHr-47" edge="1">
                    <mxGeometry relative="1" as="geometry"/>
                </mxCell>
                <mxCell id="2" value="&lt;font&gt;&lt;b style=&quot;background-color: transparent;&quot;&gt;Low&amp;nbsp;&lt;/b&gt;&lt;/font&gt;&lt;b style=&quot;background-color: transparent;&quot;&gt;pass&lt;/b&gt;&lt;div&gt;&lt;b style=&quot;background-color: transparent;&quot;&gt;filter&lt;/b&gt;&lt;/div&gt;" style="html=1;dropTarget=0;whiteSpace=wrap;align=left;" parent="1" vertex="1">
                    <mxGeometry x="440" y="130" width="110" height="40" as="geometry"/>
                </mxCell>
                <mxCell id="3" value="" style="shape=module;jettyWidth=8;jettyHeight=4;" parent="2" vertex="1">
                    <mxGeometry x="1" width="20" height="20" relative="1" as="geometry">
                        <mxPoint x="-27" y="7" as="offset"/>
                    </mxGeometry>
                </mxCell>
                <mxCell id="7" value="&lt;p style=&quot;margin: 6px 0px 0px;&quot;&gt;&lt;b&gt;&lt;font style=&quot;color: light-dark(rgb(0, 0, 0), rgb(255, 255, 255));&quot;&gt;&amp;nbsp;Low pass filter&lt;/font&gt;&lt;/b&gt;&lt;/p&gt;&lt;hr size=&quot;1&quot; style=&quot;border-style:solid;&quot;&gt;&lt;p style=&quot;margin:0px;margin-left:8px;&quot;&gt;&lt;font style=&quot;color: light-dark(rgb(0, 0, 0), rgb(255, 255, 255));&quot;&gt;- Checks below 12 BPM.&lt;/font&gt;&lt;/p&gt;" style="align=left;overflow=fill;html=1;dropTarget=0;whiteSpace=wrap;" parent="1" vertex="1">
                    <mxGeometry x="40" y="700" width="170" height="70" as="geometry"/>
                </mxCell>
                <mxCell id="8" value="" style="shape=component;jettyWidth=8;jettyHeight=4;" parent="7" vertex="1">
                    <mxGeometry x="1" width="20" height="20" relative="1" as="geometry">
                        <mxPoint x="-24" y="4" as="offset"/>
                    </mxGeometry>
                </mxCell>
            </root>
        </mxGraphModel>
    </diagram>
</mxfile>